<svg width="81" height="29" viewBox="0 0 81 29" fill="none" xmlns="http://www.w3.org/2000/svg">
<rect width="81" height="29" transform="matrix(-1 0 0 1 81 0)" fill="#002760"/>
<path d="M11.784 14.06C11.784 10.764 13.8 8.412 16.808 8.412C18.872 8.412 20.28 9.404 21.144 10.844L19.752 11.788C19.16 10.716 18.28 9.964 16.84 9.964C14.728 9.964 13.624 11.612 13.624 14.06C13.624 16.508 14.728 18.156 16.856 18.156C17.928 18.156 18.744 17.82 19.368 17.276V15.084H17.08V13.612H21.144V18.076C20.136 18.988 18.52 19.708 16.808 19.708C13.784 19.708 11.784 17.356 11.784 14.06ZM25.6461 19.708C23.8061 19.708 22.6861 18.572 22.6861 17.068C22.6861 15.564 23.8061 14.428 25.6461 14.428C26.4621 14.428 27.1981 14.7 27.7741 15.228V14.588C27.7741 13.532 27.2301 12.684 25.9981 12.684C25.0701 12.684 24.5101 13.068 24.0781 13.548L23.1501 12.444C23.6781 11.82 24.6221 11.212 26.0461 11.212C28.3021 11.212 29.5021 12.556 29.5021 14.444V19.5H27.8541V18.828C27.2781 19.404 26.5101 19.708 25.6461 19.708ZM25.9981 18.396C26.7181 18.396 27.4221 18.076 27.7741 17.532V16.62C27.4221 16.06 26.7181 15.74 25.9981 15.74C24.8781 15.74 24.4301 16.412 24.4301 17.068C24.4301 17.724 24.8781 18.396 25.9981 18.396ZM31.7778 19.5V11.42H33.4258V12.748C33.8418 11.868 34.6578 11.212 35.6978 11.212C35.8578 11.212 36.0018 11.228 36.1458 11.244V12.908H35.6978C34.7057 12.908 33.9058 13.308 33.5058 14.428V19.5H31.7778ZM39.8336 19.708C37.9936 19.708 36.8736 18.572 36.8736 17.068C36.8736 15.564 37.9936 14.428 39.8336 14.428C40.6496 14.428 41.3856 14.7 41.9616 15.228V14.588C41.9616 13.532 41.4176 12.684 40.1856 12.684C39.2576 12.684 38.6976 13.068 38.2656 13.548L37.3376 12.444C37.8656 11.82 38.8096 11.212 40.2336 11.212C42.4896 11.212 43.6896 12.556 43.6896 14.444V19.5H42.0416V18.828C41.4656 19.404 40.6976 19.708 39.8336 19.708ZM40.1856 18.396C40.9056 18.396 41.6096 18.076 41.9616 17.532V16.62C41.6096 16.06 40.9056 15.74 40.1856 15.74C39.0656 15.74 38.6176 16.412 38.6176 17.068C38.6176 17.724 39.0656 18.396 40.1856 18.396ZM45.9653 19.5V11.42H47.6293V12.412C48.1093 11.772 48.9413 11.212 50.0133 11.212C51.9813 11.212 52.9253 12.476 52.9253 14.428V19.5H51.1973V14.636C51.1973 13.34 50.5413 12.684 49.5013 12.684C48.6053 12.684 47.9653 13.276 47.6933 13.996V19.5H45.9653ZM58.3368 19.58C56.6088 19.58 55.7128 18.716 55.7128 16.78V12.764H54.3368V11.42H55.7608V9.34H57.4408V11.42H59.2328V12.764H57.4408V16.732C57.4408 17.756 57.8728 18.124 58.8488 18.124H59.2328V19.5C58.9768 19.548 58.6408 19.58 58.3368 19.58ZM60.9496 19.5V11.42H62.6776V19.5H60.9496ZM60.8376 9.852V8.028H62.8216V9.852H60.8376ZM65.059 19.5V11.42H66.707V12.748C67.123 11.868 67.939 11.212 68.979 11.212C69.139 11.212 69.283 11.228 69.427 11.244V12.908H68.979C67.987 12.908 67.187 13.308 66.787 14.428V19.5H65.059Z" fill="white"/>
</svg>
