<svg width="327" height="170" viewBox="0 0 327 170" fill="none" xmlns="http://www.w3.org/2000/svg">
<rect x="0.384003" width="326" height="170" fill="white"/>
<path d="M25.964 31.615C17.6 31.615 11.614 25.506 11.614 17.06C11.614 8.61401 17.6 2.505 25.964 2.505C31.827 2.505 36.05 5.088 38.551 9.106L33.836 12.673C32.114 10.049 29.941 8.40901 26.087 8.40901C21.208 8.40901 18.215 12.14 18.215 17.06C18.215 21.98 21.208 25.711 26.087 25.711C29.941 25.711 32.114 24.071 33.836 21.447L38.551 25.014C36.05 29.032 31.827 31.615 25.964 31.615Z" fill="#002C5F"/>
<path d="M41.7961 31V1.89H48.0691V31H41.7961Z" fill="#002C5F"/>
<path d="M52.8965 31V9.516H59.1695V31H52.8965ZM52.8965 6.687V0.578003H59.1695V6.687H52.8965Z" fill="#002C5F"/>
<path d="M92.2869 31V18.946C92.2869 16.035 91.1799 14.477 88.3919 14.477C86.0959 14.477 84.8659 16.117 84.4149 17.798V17.921V18.29V31H78.1419V18.946C78.1419 16.035 77.0349 14.477 74.2469 14.477C71.9509 14.477 70.7209 16.117 70.2699 17.798V31H63.9969V9.516H70.2699V12.304C71.4179 10.377 73.4679 8.983 76.6659 8.983C80.1099 8.983 82.2419 10.5 83.3489 12.878C84.9889 10.295 87.1619 8.983 90.8109 8.983C96.4279 8.983 98.5599 13.001 98.5599 18.29V31H92.2869Z" fill="#002C5F"/>
<path d="M118.704 31V28.786C117.187 30.385 114.973 31.533 112.308 31.533C106.363 31.533 102.058 27.146 102.058 20.258C102.058 13.37 106.363 8.983 112.308 8.983C114.973 8.983 117.187 10.131 118.704 11.771V9.516H124.977V31H118.704ZM113.866 26.039C115.834 26.039 117.802 25.055 118.704 23.292V17.265C117.802 15.461 115.834 14.477 113.866 14.477C110.75 14.477 108.413 16.527 108.413 20.258C108.413 23.989 110.75 26.039 113.866 26.039Z" fill="#002C5F"/>
<path d="M138.867 38.544L135.177 34.28C137.104 32.763 138.498 31.41 138.498 28.007V9.516H144.771V28.253C144.771 33.911 142.065 36.781 138.867 38.544ZM138.457 6.687V0.578003H144.73V6.687H138.457Z" fill="#002C5F"/>
<path d="M170.141 9.516V31H163.868V28.212C162.72 30.139 160.465 31.533 157.267 31.533C151.65 31.533 149.313 27.515 149.313 22.226V9.516H155.586V21.57C155.586 24.481 156.898 26.039 159.686 26.039C161.982 26.039 163.417 24.399 163.868 22.718V9.516H170.141Z" fill="#002C5F"/>
<path d="M174.993 31V9.516H181.266V12.304C182.414 10.377 184.669 8.983 187.867 8.983C193.484 8.983 195.821 13.001 195.821 18.29V31H189.548V18.946C189.548 16.035 188.236 14.477 185.448 14.477C183.152 14.477 181.717 16.117 181.266 17.798V31H174.993Z" fill="#002C5F"/>
<path d="M200.428 31V9.516H206.701V31H200.428ZM200.428 6.687V0.578003H206.701V6.687H200.428Z" fill="#002C5F"/>
<path d="M211.528 31V9.516H217.801V12.304C218.949 10.377 221.204 8.983 224.402 8.983C230.019 8.983 232.356 13.001 232.356 18.29V31H226.083V18.946C226.083 16.035 224.771 14.477 221.983 14.477C219.687 14.477 218.252 16.117 217.801 17.798V31H211.528Z" fill="#002C5F"/>
<path d="M247.417 31.615C239.545 31.615 235.814 25.998 235.814 20.299C235.814 14.6 239.545 8.983 247.417 8.983C255.289 8.983 259.02 14.6 259.02 20.299C259.02 25.998 255.289 31.615 247.417 31.615ZM247.417 26.121C250.492 26.121 252.665 23.825 252.665 20.299C252.665 16.773 250.492 14.477 247.417 14.477C244.342 14.477 242.169 16.773 242.169 20.299C242.169 23.825 244.342 26.121 247.417 26.121Z" fill="#002C5F"/>
<path d="M271.415 31V9.516H277.688V12.304C278.836 10.377 281.091 8.983 284.289 8.983C289.906 8.983 292.243 13.001 292.243 18.29V31H285.97V18.946C285.97 16.035 284.658 14.477 281.87 14.477C279.574 14.477 278.139 16.117 277.688 17.798V31H271.415Z" fill="#002C5F"/>
<path d="M307.305 31.615C299.433 31.615 295.702 25.998 295.702 20.299C295.702 14.6 299.433 8.983 307.305 8.983C315.177 8.983 318.908 14.6 318.908 20.299C318.908 25.998 315.177 31.615 307.305 31.615ZM307.305 26.121C310.38 26.121 312.553 23.825 312.553 20.299C312.553 16.773 310.38 14.477 307.305 14.477C304.23 14.477 302.057 16.773 302.057 20.299C302.057 23.825 304.23 26.121 307.305 26.121Z" fill="#002C5F"/>
<path d="M11.466 93V40.64H23.478V61.353H46.578V40.64H58.59V93H46.578V71.748H23.478V93H11.466Z" fill="#002C5F"/>
<path d="M71.4598 105.782L79.7758 87.379L63.9908 52.652H76.5418L85.9358 74.366L94.6368 52.652H107.265L84.0878 105.782H71.4598Z" fill="#002C5F"/>
<path d="M150.051 52.652V93H138.27V87.764C136.114 91.383 131.879 94.001 125.873 94.001C115.324 94.001 110.935 86.455 110.935 76.522V52.652H122.716V75.29C122.716 80.757 125.18 83.683 130.416 83.683C134.728 83.683 137.423 80.603 138.27 77.446V52.652H150.051Z" fill="#002C5F"/>
<path d="M158.779 93V52.652H170.56V57.888C172.716 54.269 176.951 51.651 182.957 51.651C193.506 51.651 197.895 59.197 197.895 69.13V93H186.114V70.362C186.114 64.895 183.65 61.969 178.414 61.969C174.102 61.969 171.407 65.049 170.56 68.206V93H158.779Z" fill="#002C5F"/>
<path d="M235.344 93V88.842C232.495 91.845 228.337 94.001 223.332 94.001C212.167 94.001 204.082 85.762 204.082 72.826C204.082 59.89 212.167 51.651 223.332 51.651C228.337 51.651 232.495 53.807 235.344 56.887V38.33H247.125V93H235.344ZM226.258 83.683C229.954 83.683 233.65 81.835 235.344 78.524V67.205C233.65 63.817 229.954 61.969 226.258 61.969C220.406 61.969 216.017 65.819 216.017 72.826C216.017 79.833 220.406 83.683 226.258 83.683Z" fill="#002C5F"/>
<path d="M284.982 93V88.842C282.133 91.845 277.975 94.001 272.97 94.001C261.805 94.001 253.72 85.762 253.72 72.826C253.72 59.89 261.805 51.651 272.97 51.651C277.975 51.651 282.133 53.807 284.982 56.887V52.652H296.763V93H284.982ZM275.896 83.683C279.592 83.683 283.288 81.835 284.982 78.524V67.205C283.288 63.817 279.592 61.969 275.896 61.969C270.044 61.969 265.655 65.819 265.655 72.826C265.655 79.833 270.044 83.683 275.896 83.683Z" fill="#002C5F"/>
<path d="M305.437 93V52.652H317.218V93H305.437ZM305.437 47.339V35.866H317.218V47.339H305.437Z" fill="#002C5F"/>
<path d="M30.023 158.155C17.549 158.155 10.85 151.995 7 146.528L14.623 138.751C17.626 143.217 22.631 147.529 30.254 147.529C35.644 147.529 38.493 144.988 38.493 141.677C38.493 139.29 37.184 136.98 31.178 136.133L27.02 135.517C17.318 134.131 10.927 128.51 10.927 120.194C10.927 110.646 18.473 103.485 30.408 103.485C38.57 103.485 45.423 106.95 49.427 111.801L42.035 119.809C38.801 116.267 34.643 114.111 30.177 114.111C25.865 114.111 23.324 116.421 23.324 118.885C23.324 121.195 25.095 123.197 29.176 123.813L33.334 124.429C44.422 126.046 50.89 131.667 50.89 140.83C50.89 151.302 42.112 158.155 30.023 158.155Z" fill="#002C5F"/>
<path d="M78.1823 158.078C64.6303 158.078 56.3143 148.53 56.3143 136.98C56.3143 124.198 65.0923 115.651 76.9503 115.651C88.8083 115.651 96.3543 123.505 96.3543 135.286C96.3543 136.749 96.1233 138.982 95.9693 140.137H67.9413C68.8653 144.757 72.0993 148.068 78.7983 148.068C83.4183 148.068 87.1143 145.373 89.1163 142.832L95.3533 150.609C91.7343 154.613 85.8823 158.078 78.1823 158.078ZM76.9503 125.122C72.6383 125.122 69.6353 127.278 68.3263 131.59H84.9583C84.4963 127.355 81.5703 125.122 76.9503 125.122Z" fill="#002C5F"/>
<path d="M156.893 157V134.362C156.893 128.895 154.814 125.969 149.578 125.969C145.266 125.969 142.956 129.049 142.109 132.206V132.437V133.13V157H130.328V134.362C130.328 128.895 128.249 125.969 123.013 125.969C118.701 125.969 116.391 129.049 115.544 132.206V157H103.763V116.652H115.544V121.888C117.7 118.269 121.55 115.651 127.556 115.651C134.024 115.651 138.028 118.5 140.107 122.966C143.187 118.115 147.268 115.651 154.121 115.651C164.67 115.651 168.674 123.197 168.674 133.13V157H156.893Z" fill="#002C5F"/>
<path d="M177.707 169.782V116.652H189.488V120.887C192.26 117.807 196.495 115.651 201.5 115.651C212.665 115.651 220.75 123.89 220.75 136.826C220.75 149.762 212.665 158.001 201.5 158.001C196.495 158.001 192.26 155.845 189.488 152.842V169.782H177.707ZM198.574 147.683C204.426 147.683 208.815 143.833 208.815 136.826C208.815 129.819 204.426 125.969 198.574 125.969C194.878 125.969 191.105 127.817 189.488 131.205V142.524C191.105 145.835 194.878 147.683 198.574 147.683Z" fill="#002C5F"/>
<path d="M228.115 157V116.652H239.896V122.427C242.206 118.192 245.902 115.651 250.676 115.651H252.062V126.739C246.518 126.739 241.744 127.894 239.896 133.823V157H228.115Z" fill="#002C5F"/>
<path d="M276.806 158.078C263.254 158.078 254.938 148.53 254.938 136.98C254.938 124.198 263.716 115.651 275.574 115.651C287.432 115.651 294.978 123.505 294.978 135.286C294.978 136.749 294.747 138.982 294.593 140.137H266.565C267.489 144.757 270.723 148.068 277.422 148.068C282.042 148.068 285.738 145.373 287.74 142.832L293.977 150.609C290.358 154.613 284.506 158.078 276.806 158.078ZM275.574 125.122C271.262 125.122 268.259 127.278 266.95 131.59H283.582C283.12 127.355 280.194 125.122 275.574 125.122Z" fill="#002C5F"/>
<path d="M301.925 157V143.448H315.631V157H301.925Z" fill="#002C5F"/>
</svg>
